<svg width="23" height="23" viewBox="0 0 23 23" fill="none" xmlns="http://www.w3.org/2000/svg">
<path fill-rule="evenodd" clip-rule="evenodd" d="M0.5 2.74279C0.5 2.25532 0.693646 1.78782 1.03834 1.44313C1.38303 1.09843 1.85053 0.904788 2.338 0.904788H20.66C20.9016 0.904393 21.1409 0.951651 21.3641 1.04385C21.5874 1.13606 21.7903 1.2714 21.9612 1.44212C22.1322 1.61285 22.2677 1.81561 22.3602 2.0388C22.4526 2.26198 22.5001 2.50121 22.5 2.74279V21.0648C22.5003 21.3064 22.4529 21.5457 22.3606 21.769C22.2683 21.9923 22.1328 22.1952 21.962 22.3661C21.7912 22.537 21.5884 22.6725 21.3651 22.765C21.1419 22.8574 20.9026 22.9049 20.661 22.9048H2.338C2.09655 22.9048 1.85746 22.8572 1.6344 22.7648C1.41134 22.6724 1.20867 22.5369 1.03798 22.3661C0.867297 22.1953 0.731932 21.9926 0.639623 21.7695C0.547313 21.5464 0.499869 21.3072 0.5 21.0658V2.74279ZM9.208 9.29279H12.187V10.7888C12.617 9.92879 13.717 9.15479 15.37 9.15479C18.539 9.15479 19.29 10.8678 19.29 14.0108V19.8328H16.083V14.7268C16.083 12.9368 15.653 11.9268 14.561 11.9268C13.046 11.9268 12.416 13.0158 12.416 14.7268V19.8328H9.208V9.29279ZM3.708 19.6958H6.916V9.15479H3.708V19.6948V19.6958ZM7.375 5.71679C7.38105 5.99146 7.33217 6.26457 7.23124 6.5201C7.13031 6.77563 6.97935 7.00842 6.78723 7.20482C6.59511 7.40122 6.3657 7.55726 6.11246 7.66379C5.85921 7.77033 5.58724 7.8252 5.3125 7.8252C5.03776 7.8252 4.76579 7.77033 4.51255 7.66379C4.2593 7.55726 4.02989 7.40122 3.83777 7.20482C3.64565 7.00842 3.49469 6.77563 3.39376 6.5201C3.29283 6.26457 3.24395 5.99146 3.25 5.71679C3.26187 5.17764 3.48439 4.66458 3.86989 4.28747C4.25539 3.91037 4.77322 3.69921 5.3125 3.69921C5.85178 3.69921 6.36961 3.91037 6.75512 4.28747C7.14062 4.66458 7.36313 5.17764 7.375 5.71679Z" fill="#2A4054"/>
</svg>
