<svg width="24" height="20" viewBox="0 0 24 20" fill="none" xmlns="http://www.w3.org/2000/svg">
<path d="M23.143 2.8418C22.308 3.2118 21.411 3.4618 20.468 3.5748C21.441 2.99259 22.169 2.07627 22.516 0.996801C21.6019 1.53979 20.6014 1.922 19.558 2.1268C18.8564 1.37767 17.9271 0.881127 16.9143 0.714275C15.9016 0.547423 14.8621 0.719593 13.9572 1.20405C13.0524 1.68852 12.3328 2.45816 11.9102 3.3935C11.4875 4.32885 11.3855 5.37755 11.62 6.3768C9.7677 6.2838 7.95564 5.80235 6.30144 4.96371C4.64723 4.12506 3.18785 2.94796 2.01801 1.5088C1.61801 2.1988 1.38801 2.9988 1.38801 3.8508C1.38757 4.6178 1.57644 5.37304 1.93789 6.04953C2.29934 6.72602 2.82217 7.30284 3.46001 7.7288C2.72029 7.70526 1.99688 7.50538 1.35001 7.1458V7.2058C1.34994 8.28154 1.72204 9.32418 2.40319 10.1568C3.08434 10.9894 4.03258 11.5607 5.08701 11.7738C4.4008 11.9595 3.68135 11.9869 2.98301 11.8538C3.28051 12.7794 3.86001 13.5888 4.64038 14.1687C5.42075 14.7486 6.36293 15.07 7.33501 15.0878C5.68484 16.3832 3.6469 17.0859 1.54901 17.0828C1.17739 17.0829 0.806088 17.0612 0.437012 17.0178C2.56649 18.387 5.04535 19.1136 7.57701 19.1108C16.147 19.1108 20.832 12.0128 20.832 5.8568C20.832 5.6568 20.827 5.4548 20.818 5.2548C21.7293 4.59578 22.5159 3.7797 23.141 2.8448L23.143 2.8418Z" fill="#2A4054"/>
</svg>
