<svg width="19" height="20" viewBox="0 0 19 20" fill="none" xmlns="http://www.w3.org/2000/svg">
<path d="M9.50011 6.78058C7.7798 6.78058 6.37589 8.18449 6.37589 9.9048C6.37589 11.6251 7.7798 13.029 9.50011 13.029C11.2204 13.029 12.6243 11.6251 12.6243 9.9048C12.6243 8.18449 11.2204 6.78058 9.50011 6.78058ZM18.8704 9.9048C18.8704 8.61105 18.8821 7.32902 18.8095 6.03761C18.7368 4.53761 18.3946 3.20636 17.2978 2.10949C16.1985 1.01027 14.8696 0.670424 13.3696 0.597767C12.0759 0.525111 10.7939 0.53683 9.50245 0.53683C8.2087 0.53683 6.92667 0.525111 5.63527 0.597767C4.13527 0.670424 2.80402 1.01261 1.70714 2.10949C0.607924 3.2087 0.26808 4.53761 0.195424 6.03761C0.122767 7.33136 0.134486 8.61339 0.134486 9.9048C0.134486 11.1962 0.122767 12.4806 0.195424 13.772C0.26808 15.272 0.610267 16.6032 1.70714 17.7001C2.80636 18.7993 4.13527 19.1392 5.63527 19.2118C6.92902 19.2845 8.21105 19.2728 9.50245 19.2728C10.7962 19.2728 12.0782 19.2845 13.3696 19.2118C14.8696 19.1392 16.2009 18.797 17.2978 17.7001C18.397 16.6009 18.7368 15.272 18.8095 13.772C18.8845 12.4806 18.8704 11.1985 18.8704 9.9048ZM9.50011 14.7118C6.83995 14.7118 4.69308 12.565 4.69308 9.9048C4.69308 7.24464 6.83995 5.09777 9.50011 5.09777C12.1603 5.09777 14.3071 7.24464 14.3071 9.9048C14.3071 12.565 12.1603 14.7118 9.50011 14.7118ZM14.504 6.02355C13.8829 6.02355 13.3814 5.52199 13.3814 4.90089C13.3814 4.2798 13.8829 3.77824 14.504 3.77824C15.1251 3.77824 15.6267 4.2798 15.6267 4.90089C15.6269 5.04837 15.5979 5.19444 15.5416 5.33073C15.4852 5.46702 15.4026 5.59086 15.2983 5.69514C15.194 5.79943 15.0701 5.88212 14.9339 5.93847C14.7976 5.99482 14.6515 6.02373 14.504 6.02355Z" fill="#2A4054"/>
</svg>
