<svg width="35" height="42" viewBox="0 0 35 42" fill="none" xmlns="http://www.w3.org/2000/svg">
<path d="M34.6627 1.08031C34.8531 1.29141 34.9497 1.55326 34.9497 1.86217V40.0993C34.9497 40.4082 34.8531 40.6607 34.6627 40.8529C34.4725 41.0452 34.2415 41.143 33.9733 41.143H28.2993C28.0311 41.143 27.8034 41.0482 27.6099 40.8529C27.4198 40.6607 27.3232 40.4082 27.3232 40.0993V17.1564C27.3232 16.8095 27.2452 16.636 27.0952 16.636C26.98 16.636 26.8085 16.7718 26.5805 17.0427C25.9692 17.9698 24.9647 19.4169 23.5705 21.3873C22.176 23.3581 21.153 24.7863 20.5042 25.6754C20.1205 26.1766 19.8054 26.5077 19.5591 26.6589C19.3096 26.8136 18.9009 26.8922 18.3271 26.8922H17.3537C16.6643 26.8922 16.1964 26.8354 15.95 26.7188C15.7004 26.6021 15.4228 26.353 15.1202 25.9655L8.87223 17.0996C8.71941 16.7527 8.54783 16.5796 8.35755 16.5796C8.20472 16.5796 8.12673 16.7527 8.12673 17.0996V24.2848C8.12673 24.5937 8.03004 24.8461 7.83975 25.0384C7.64947 25.2307 7.41865 25.3285 7.15039 25.3285H1.53248C1.26424 25.3285 1.02715 25.2213 0.815046 25.0098C0.606051 24.7988 0.5 24.5561 0.5 24.2848V1.86217C0.5 1.55326 0.606051 1.29141 0.815046 1.08031C1.02404 0.868884 1.26424 0.761658 1.53248 0.761658H7.26579C7.3812 0.761658 7.52471 0.831237 7.69628 0.963675C7.86782 1.09914 7.99261 1.24401 8.06746 1.39864L16.7797 15.9396C16.8172 16.0182 16.9232 16.1318 17.0946 16.2861C17.2662 16.4407 17.4847 16.5194 17.7529 16.5194H17.809C18.0775 16.5194 18.2862 16.4249 18.4392 16.2293C18.5922 16.037 18.6888 15.9016 18.7263 15.8226L27.3823 1.45544C27.4978 1.26317 27.613 1.09914 27.7254 0.963675C27.8409 0.827876 27.9936 0.761658 28.1841 0.761658H28.2401H33.9733C34.2415 0.761658 34.4695 0.868884 34.6627 1.08031Z" fill="#2A4054"/>
</svg>
