<svg width="42" height="42" viewBox="0 0 42 42" fill="none" xmlns="http://www.w3.org/2000/svg">
<path d="M11.0162 39.1064C7.78634 37.2409 5.23199 34.6997 3.35651 31.4869C1.48103 28.2738 0.543457 24.7622 0.543457 20.9524C0.543457 17.1426 1.48103 13.631 3.35651 10.4182C5.23199 7.20508 7.78634 4.66725 11.0162 2.79833C14.246 0.932777 17.7761 0 21.6057 0C22.4964 0 23.3644 0.0564709 24.2168 0.172774C24.5644 0.210421 24.8359 0.364372 25.0284 0.63429C25.2209 0.904543 25.2811 1.21244 25.202 1.55766L24.2739 6.57987C24.1571 7.19567 23.7717 7.50323 23.1121 7.50323L21.6027 7.44676C19.1652 7.44676 16.9047 8.05315 14.8144 9.26526C12.7241 10.4777 11.0729 12.1234 9.85434 14.1997C8.63543 16.2757 8.02614 18.5278 8.02614 20.9524C8.02614 23.3773 8.63543 25.626 9.85434 27.7054C11.0729 29.7844 12.7275 31.4271 14.8144 32.6395C16.9013 33.8519 19.1652 34.458 21.6027 34.458C24.4252 34.458 26.9009 33.6604 29.0286 32.0617C31.1568 30.466 32.7229 28.3397 33.727 25.6825H26.2409C25.9315 25.6825 25.66 25.5662 25.4293 25.3369C25.199 25.1077 25.0821 24.8378 25.0821 24.5299V20.3181C25.0821 20.0102 25.199 19.7399 25.4293 19.5107C25.663 19.2814 25.9315 19.1651 26.2409 19.1651H38.5986C39.527 19.1651 40.2437 19.3191 40.7456 19.627C41.2475 19.9349 41.5001 20.3776 41.5001 20.9554C41.5001 24.8032 40.6477 28.3239 38.9458 31.5182C37.2442 34.7125 34.8729 37.2409 31.8387 39.1064C28.8013 40.972 25.3885 41.9048 21.5997 41.9048C17.7727 41.9048 14.243 40.972 11.0162 39.1064Z" fill="#2A4054"/>
</svg>
