<svg width="25" height="18" viewBox="0 0 25 18" fill="none" xmlns="http://www.w3.org/2000/svg">
<path d="M12.5765 0.903259H12.71C13.943 0.907759 20.1905 0.95276 21.875 1.40576C22.3842 1.54401 22.8483 1.81349 23.2207 2.18727C23.5932 2.56105 23.861 3.02604 23.9975 3.53576C24.149 4.10576 24.2555 4.86026 24.3275 5.63876L24.3425 5.79476L24.3755 6.18476L24.3875 6.34076C24.485 7.71176 24.497 8.99576 24.4985 9.27626V9.38876C24.497 9.67976 24.4835 11.0508 24.3755 12.4788L24.3635 12.6363L24.35 12.7923C24.275 13.6503 24.164 14.5023 23.9975 15.1293C23.8615 15.6392 23.5938 16.1044 23.2212 16.4782C22.8487 16.8521 22.3844 17.1214 21.875 17.2593C20.135 17.7273 13.5215 17.7603 12.605 17.7618H12.392C11.9285 17.7618 10.0115 17.7528 8.0015 17.6838L7.7465 17.6748L7.616 17.6688L7.3595 17.6583L7.103 17.6478C5.438 17.5743 3.8525 17.4558 3.122 17.2578C2.61273 17.1201 2.1486 16.8509 1.77609 16.4774C1.40358 16.1038 1.13577 15.6389 0.9995 15.1293C0.833 14.5038 0.722 13.6503 0.647 12.7923L0.635 12.6348L0.623 12.4788C0.548971 11.4624 0.50795 10.4438 0.5 9.42476L0.5 9.24026C0.503 8.91776 0.515 7.80326 0.596 6.57326L0.6065 6.41876L0.611 6.34076L0.623 6.18476L0.656 5.79476L0.671 5.63876C0.743 4.86026 0.8495 4.10426 1.001 3.53576C1.13704 3.02583 1.40474 2.56063 1.77727 2.18678C2.1498 1.81294 2.61405 1.5436 3.1235 1.40576C3.854 1.21076 5.4395 1.09076 7.1045 1.01576L7.3595 1.00526L7.6175 0.99626L7.7465 0.991759L8.003 0.98126C9.43056 0.935321 10.8587 0.909819 12.287 0.904759H12.5765V0.903259ZM10.1 5.71826V12.9453L16.3355 9.33326L10.1 5.71826Z" fill="#2A4054"/>
</svg>
