<svg width="21" height="24" viewBox="0 0 21 24" fill="none" xmlns="http://www.w3.org/2000/svg">
<path d="M17.8208 5.46678C17.669 5.38823 17.5211 5.30212 17.3778 5.20879C16.9615 4.93351 16.5798 4.60918 16.2408 4.24278C15.3918 3.27179 15.0748 2.28679 14.9588 1.59779H14.9628C14.8658 1.02479 14.9058 0.654785 14.9128 0.654785H11.0478V15.5978C11.0478 15.7978 11.0478 15.9968 11.0398 16.1928C11.0398 16.2168 11.0368 16.2388 11.0358 16.2658C11.0358 16.2758 11.0358 16.2878 11.0328 16.2988V16.3078C10.9922 16.8438 10.8205 17.3616 10.5328 17.8157C10.2451 18.2698 9.85018 18.6462 9.38283 18.9118C8.89526 19.1892 8.34378 19.3346 7.78283 19.3338C5.98283 19.3338 4.52283 17.8658 4.52283 16.0528C4.52283 14.2388 5.98283 12.7708 7.78283 12.7708C8.12383 12.7708 8.46283 12.8248 8.78683 12.9308L8.79183 8.99479C7.80784 8.86784 6.80822 8.94625 5.85607 9.22508C4.90391 9.50391 4.0199 9.9771 3.25983 10.6148C2.59368 11.1933 2.03362 11.8837 1.60483 12.6548C1.44183 12.9358 0.82583 14.0668 0.75183 15.9008C0.70483 16.9408 1.01783 18.0208 1.16683 18.4658V18.4758C1.25983 18.7378 1.62383 19.6338 2.21583 20.3888C2.69323 20.9948 3.25728 21.5272 3.88983 21.9688V21.9588L3.89883 21.9688C5.76883 23.2388 7.84383 23.1558 7.84383 23.1558C8.20283 23.1408 9.40583 23.1558 10.7718 22.5088C12.2868 21.7908 13.1488 20.7218 13.1488 20.7218C13.6999 20.0829 14.1382 19.3548 14.4448 18.5688C14.7948 17.6488 14.9108 16.5468 14.9108 16.1068V8.17778C14.9578 8.20578 15.5828 8.61878 15.5828 8.61878C15.5828 8.61878 16.4828 9.19579 17.8858 9.57079C18.8918 9.83779 20.2488 9.89478 20.2488 9.89478V6.05779C19.7738 6.10979 18.8088 5.95979 17.8198 5.46779L17.8208 5.46678Z" fill="#2A4054"/>
</svg>
